<svg width="18" height="18" viewBox="0 0 18 18" fill="none" xmlns="http://www.w3.org/2000/svg">
<path d="M10.158 7.84197C9.54366 7.2279 8.71061 6.88293 7.842 6.88293C6.97338 6.88293 6.14032 7.2279 5.526 7.84197L3.20924 10.158C2.5949 10.7723 2.24977 11.6055 2.24977 12.4743C2.24977 13.3432 2.5949 14.1764 3.20924 14.7907C3.82359 15.4051 4.65681 15.7502 5.52562 15.7502C6.39443 15.7502 7.22765 15.4051 7.842 14.7907L8.99999 13.6327" stroke="#909099" stroke-width="1.58333" stroke-linecap="round" stroke-linejoin="round"/>
<path d="M7.842 10.158C8.45633 10.7721 9.28938 11.117 10.158 11.117C11.0266 11.117 11.8597 10.7721 12.474 10.158L14.7907 7.84198C15.4051 7.22764 15.7502 6.39441 15.7502 5.5256C15.7502 4.6568 15.4051 3.82357 14.7907 3.20923C14.1764 2.59489 13.3432 2.24976 12.4744 2.24976C11.6056 2.24976 10.7723 2.59489 10.158 3.20923L8.99999 4.36723" stroke="#909099" stroke-width="1.58333" stroke-linecap="round" stroke-linejoin="round"/>
</svg>
