<svg width="100" height="100" viewBox="0 0 100 100" fill="none" xmlns="http://www.w3.org/2000/svg">
<rect width="100" height="100" rx="50" fill="white"/>
<path d="M36.352 80.416C32.384 80.416 29.376 79.4133 27.328 77.408C25.28 75.4453 24.256 72.6293 24.256 68.96V57.376C24.256 56.352 24 55.6053 23.488 55.136C22.976 54.624 22.2933 54.368 21.44 54.368H19.328V46.56H21.44C22.2933 46.56 22.976 46.304 23.488 45.792C24 45.28 24.256 44.5333 24.256 43.552V31.968C24.256 28.256 25.28 25.4187 27.328 23.456C29.376 21.4933 32.384 20.512 36.352 20.512H40.064V28.32H38.912C37.376 28.32 36.2027 28.7253 35.392 29.536C34.624 30.3467 34.24 31.52 34.24 33.056V43.296C34.24 45.1733 33.984 46.6453 33.472 47.712C32.96 48.7787 32.1493 49.5467 31.04 50.016C29.9733 50.4853 28.5867 50.8267 26.88 51.04V49.888C28.5867 50.0587 29.9733 50.4 31.04 50.912C32.1493 51.3813 32.96 52.1493 33.472 53.216C33.984 54.2827 34.24 55.7547 34.24 57.632V67.872C34.24 69.408 34.624 70.5813 35.392 71.392C36.2027 72.2027 37.376 72.608 38.912 72.608H40.064V80.416H36.352ZM63.797 80.416H60.085V72.608H61.237C62.773 72.608 63.925 72.2027 64.693 71.392C65.5037 70.5813 65.909 69.408 65.909 67.872V57.632C65.909 55.7547 66.165 54.2827 66.677 53.216C67.2317 52.1493 68.0423 51.3813 69.109 50.912C70.1757 50.4 71.5623 50.0587 73.269 49.888V51.04C71.5623 50.8267 70.1757 50.4853 69.109 50.016C68.0423 49.5467 67.2317 48.7787 66.677 47.712C66.165 46.6453 65.909 45.1733 65.909 43.296V33.056C65.909 31.52 65.5037 30.3467 64.693 29.536C63.925 28.7253 62.773 28.32 61.237 28.32H60.085V20.512H63.797C67.8077 20.512 70.8157 21.4933 72.821 23.456C74.869 25.4187 75.893 28.256 75.893 31.968V43.552C75.893 44.5333 76.149 45.28 76.661 45.792C77.173 46.304 77.8557 46.56 78.709 46.56H80.821V54.368H78.709C77.8557 54.368 77.173 54.624 76.661 55.136C76.149 55.6053 75.893 56.352 75.893 57.376V68.96C75.893 72.6293 74.869 75.4453 72.821 77.408C70.8157 79.4133 67.8077 80.416 63.797 80.416Z" fill="black"/>
</svg>
