<svg width="177" height="49" viewBox="0 0 177 49" fill="none" xmlns="http://www.w3.org/2000/svg">
<path d="M8.096 36.256C6.624 36.256 5.20533 36.0853 3.84 35.744C2.496 35.3813 1.42933 34.9333 0.64 34.4L2.304 30.816C3.09333 31.3067 4.02133 31.712 5.088 32.032C6.176 32.3307 7.24267 32.48 8.288 32.48C9.44 32.48 10.2507 32.3413 10.72 32.064C11.2107 31.7867 11.456 31.4027 11.456 30.912C11.456 30.5067 11.264 30.208 10.88 30.016C10.5173 29.8027 10.0267 29.6427 9.408 29.536C8.78933 29.4293 8.10667 29.3227 7.36 29.216C6.63467 29.1093 5.89867 28.9707 5.152 28.8C4.40533 28.608 3.72267 28.3307 3.104 27.968C2.48533 27.6053 1.984 27.1147 1.6 26.496C1.23733 25.8773 1.056 25.0773 1.056 24.096C1.056 23.008 1.36533 22.048 1.984 21.216C2.624 20.384 3.54133 19.7333 4.736 19.264C5.93067 18.7733 7.36 18.528 9.024 18.528C10.1973 18.528 11.392 18.656 12.608 18.912C13.824 19.168 14.8373 19.5413 15.648 20.032L13.984 23.584C13.152 23.0933 12.3093 22.7627 11.456 22.592C10.624 22.4 9.81333 22.304 9.024 22.304C7.91467 22.304 7.104 22.4533 6.592 22.752C6.08 23.0507 5.824 23.4347 5.824 23.904C5.824 24.3307 6.00533 24.6507 6.368 24.864C6.752 25.0773 7.25333 25.248 7.872 25.376C8.49067 25.504 9.16267 25.6213 9.888 25.728C10.6347 25.8133 11.3813 25.952 12.128 26.144C12.8747 26.336 13.5467 26.6133 14.144 26.976C14.7627 27.3173 15.264 27.7973 15.648 28.416C16.032 29.0133 16.224 29.8027 16.224 30.784C16.224 31.8507 15.904 32.8 15.264 33.632C14.624 34.4427 13.696 35.0827 12.48 35.552C11.2853 36.0213 9.824 36.256 8.096 36.256ZM29.48 36.256C28.0293 36.256 26.76 35.936 25.672 35.296C24.584 34.656 23.7307 33.6853 23.112 32.384C22.5147 31.0613 22.216 29.3973 22.216 27.392C22.216 25.3653 22.504 23.7013 23.08 22.4C23.656 21.0987 24.488 20.128 25.576 19.488C26.664 18.848 27.9653 18.528 29.48 18.528C31.1013 18.528 32.552 18.9013 33.832 19.648C35.1333 20.3733 36.1573 21.3973 36.904 22.72C37.672 24.0427 38.056 25.6 38.056 27.392C38.056 29.2053 37.672 30.7733 36.904 32.096C36.1573 33.4187 35.1333 34.4427 33.832 35.168C32.552 35.8933 31.1013 36.256 29.48 36.256ZM19.304 42.208V18.784H24.072V22.304L23.976 27.424L24.296 32.512V42.208H19.304ZM28.616 32.16C29.448 32.16 30.184 31.968 30.824 31.584C31.4853 31.2 32.008 30.656 32.392 29.952C32.7973 29.2267 33 28.3733 33 27.392C33 26.3893 32.7973 25.536 32.392 24.832C32.008 24.128 31.4853 23.584 30.824 23.2C30.184 22.816 29.448 22.624 28.616 22.624C27.784 22.624 27.0373 22.816 26.376 23.2C25.7147 23.584 25.192 24.128 24.808 24.832C24.424 25.536 24.232 26.3893 24.232 27.392C24.232 28.3733 24.424 29.2267 24.808 29.952C25.192 30.656 25.7147 31.2 26.376 31.584C27.0373 31.968 27.784 32.16 28.616 32.16Z" fill="black"/>
<rect x="50" width="127" height="49" fill="black"/>
<path d="M70.176 42.208C68.192 42.208 66.688 41.7067 65.664 40.704C64.64 39.7227 64.128 38.3147 64.128 36.48V30.688C64.128 30.176 64 29.8027 63.744 29.568C63.488 29.312 63.1467 29.184 62.72 29.184H61.664V25.28H62.72C63.1467 25.28 63.488 25.152 63.744 24.896C64 24.64 64.128 24.2667 64.128 23.776V17.984C64.128 16.128 64.64 14.7093 65.664 13.728C66.688 12.7467 68.192 12.256 70.176 12.256H72.032V16.16H71.456C70.688 16.16 70.1013 16.3627 69.696 16.768C69.312 17.1733 69.12 17.76 69.12 18.528V23.648C69.12 24.5867 68.992 25.3227 68.736 25.856C68.48 26.3893 68.0747 26.7733 67.52 27.008C66.9867 27.2427 66.2933 27.4133 65.44 27.52V26.944C66.2933 27.0293 66.9867 27.2 67.52 27.456C68.0747 27.6907 68.48 28.0747 68.736 28.608C68.992 29.1413 69.12 29.8773 69.12 30.816V35.936C69.12 36.704 69.312 37.2907 69.696 37.696C70.1013 38.1013 70.688 38.304 71.456 38.304H72.032V42.208H70.176ZM83.124 36.256C81.268 36.256 79.6147 35.8827 78.164 35.136C76.7133 34.368 75.572 33.312 74.74 31.968C73.9293 30.624 73.524 29.0987 73.524 27.392C73.524 25.664 73.9293 24.1387 74.74 22.816C75.572 21.472 76.7133 20.4267 78.164 19.68C79.6147 18.912 81.268 18.528 83.124 18.528C84.9373 18.528 86.516 18.912 87.86 19.68C89.204 20.4267 90.196 21.504 90.836 22.912L86.964 24.992C86.516 24.1813 85.9507 23.584 85.268 23.2C84.6067 22.816 83.8813 22.624 83.092 22.624C82.2387 22.624 81.4707 22.816 80.788 23.2C80.1053 23.584 79.5613 24.128 79.156 24.832C78.772 25.536 78.58 26.3893 78.58 27.392C78.58 28.3947 78.772 29.248 79.156 29.952C79.5613 30.656 80.1053 31.2 80.788 31.584C81.4707 31.968 82.2387 32.16 83.092 32.16C83.8813 32.16 84.6067 31.9787 85.268 31.616C85.9507 31.232 86.516 30.624 86.964 29.792L90.836 31.904C90.196 33.2907 89.204 34.368 87.86 35.136C86.516 35.8827 84.9373 36.256 83.124 36.256ZM101.684 36.256C99.8488 36.256 98.2168 35.872 96.7875 35.104C95.3795 34.336 94.2595 33.2907 93.4275 31.968C92.6168 30.624 92.2115 29.0987 92.2115 27.392C92.2115 25.664 92.6168 24.1387 93.4275 22.816C94.2595 21.472 95.3795 20.4267 96.7875 19.68C98.2168 18.912 99.8488 18.528 101.684 18.528C103.497 18.528 105.118 18.912 106.548 19.68C107.977 20.4267 109.097 21.4613 109.908 22.784C110.718 24.1067 111.124 25.6427 111.124 27.392C111.124 29.0987 110.718 30.624 109.908 31.968C109.097 33.2907 107.977 34.336 106.548 35.104C105.118 35.872 103.497 36.256 101.684 36.256ZM101.684 32.16C102.516 32.16 103.262 31.968 103.924 31.584C104.585 31.2 105.108 30.656 105.492 29.952C105.876 29.2267 106.068 28.3733 106.068 27.392C106.068 26.3893 105.876 25.536 105.492 24.832C105.108 24.128 104.585 23.584 103.924 23.2C103.262 22.816 102.516 22.624 101.684 22.624C100.852 22.624 100.105 22.816 99.4435 23.2C98.7822 23.584 98.2488 24.128 97.8435 24.832C97.4595 25.536 97.2675 26.3893 97.2675 27.392C97.2675 28.3733 97.4595 29.2267 97.8435 29.952C98.2488 30.656 98.7822 31.2 99.4435 31.584C100.105 31.968 100.852 32.16 101.684 32.16ZM121.852 36.256C120.231 36.256 118.77 35.8933 117.468 35.168C116.167 34.4213 115.132 33.3867 114.364 32.064C113.618 30.7413 113.244 29.184 113.244 27.392C113.244 25.5787 113.618 24.0107 114.364 22.688C115.132 21.3653 116.167 20.3413 117.468 19.616C118.77 18.8907 120.231 18.528 121.852 18.528C123.303 18.528 124.572 18.848 125.66 19.488C126.748 20.128 127.591 21.0987 128.188 22.4C128.786 23.7013 129.084 25.3653 129.084 27.392C129.084 29.3973 128.796 31.0613 128.22 32.384C127.644 33.6853 126.812 34.656 125.724 35.296C124.658 35.936 123.367 36.256 121.852 36.256ZM122.716 32.16C123.527 32.16 124.263 31.968 124.924 31.584C125.586 31.2 126.108 30.656 126.492 29.952C126.898 29.2267 127.1 28.3733 127.1 27.392C127.1 26.3893 126.898 25.536 126.492 24.832C126.108 24.128 125.586 23.584 124.924 23.2C124.263 22.816 123.527 22.624 122.716 22.624C121.884 22.624 121.138 22.816 120.476 23.2C119.815 23.584 119.282 24.128 118.876 24.832C118.492 25.536 118.3 26.3893 118.3 27.392C118.3 28.3733 118.492 29.2267 118.876 29.952C119.282 30.656 119.815 31.2 120.476 31.584C121.138 31.968 121.884 32.16 122.716 32.16ZM127.228 36V32.48L127.324 27.36L127.004 22.272V12.256H131.996V36H127.228ZM145.161 36.256C143.198 36.256 141.47 35.872 139.977 35.104C138.505 34.336 137.363 33.2907 136.553 31.968C135.742 30.624 135.337 29.0987 135.337 27.392C135.337 25.664 135.731 24.1387 136.521 22.816C137.331 21.472 138.43 20.4267 139.817 19.68C141.203 18.912 142.771 18.528 144.521 18.528C146.206 18.528 147.721 18.8907 149.065 19.616C150.43 20.32 151.507 21.344 152.297 22.688C153.086 24.0107 153.481 25.6 153.481 27.456C153.481 27.648 153.47 27.872 153.449 28.128C153.427 28.3627 153.406 28.5867 153.385 28.8H139.401V25.888H150.76L148.841 26.752C148.841 25.856 148.659 25.0773 148.297 24.416C147.934 23.7547 147.433 23.2427 146.793 22.88C146.153 22.496 145.406 22.304 144.553 22.304C143.699 22.304 142.942 22.496 142.281 22.88C141.641 23.2427 141.139 23.7653 140.777 24.448C140.414 25.1093 140.233 25.8987 140.233 26.816V27.584C140.233 28.5227 140.435 29.3547 140.841 30.08C141.267 30.784 141.854 31.328 142.601 31.712C143.369 32.0747 144.265 32.256 145.289 32.256C146.206 32.256 147.006 32.1173 147.689 31.84C148.393 31.5627 149.033 31.1467 149.609 30.592L152.265 33.472C151.475 34.368 150.483 35.0613 149.289 35.552C148.094 36.0213 146.718 36.256 145.161 36.256ZM156.836 42.208H154.98V38.304H155.556C156.324 38.304 156.9 38.1013 157.284 37.696C157.689 37.2907 157.892 36.704 157.892 35.936V30.816C157.892 29.8773 158.02 29.1413 158.276 28.608C158.553 28.0747 158.959 27.6907 159.492 27.456C160.025 27.2 160.719 27.0293 161.572 26.944V27.52C160.719 27.4133 160.025 27.2427 159.492 27.008C158.959 26.7733 158.553 26.3893 158.276 25.856C158.02 25.3227 157.892 24.5867 157.892 23.648V18.528C157.892 17.76 157.689 17.1733 157.284 16.768C156.9 16.3627 156.324 16.16 155.556 16.16H154.98V12.256H156.836C158.841 12.256 160.345 12.7467 161.348 13.728C162.372 14.7093 162.884 16.128 162.884 17.984V23.776C162.884 24.2667 163.012 24.64 163.268 24.896C163.524 25.152 163.865 25.28 164.292 25.28H165.348V29.184H164.292C163.865 29.184 163.524 29.312 163.268 29.568C163.012 29.8027 162.884 30.176 162.884 30.688V36.48C162.884 38.3147 162.372 39.7227 161.348 40.704C160.345 41.7067 158.841 42.208 156.836 42.208Z" fill="white"/>
</svg>
