<svg width="44" height="44" viewBox="0 0 44 44" fill="none" xmlns="http://www.w3.org/2000/svg">
<g clip-path="url(#clip0_33_20)">
<path fill-rule="evenodd" clip-rule="evenodd" d="M9.13917 3.66666C6.6275 3.66666 4.77033 5.86482 4.85467 8.24632C4.9335 10.538 4.83083 13.5025 4.08467 15.9207C3.333 18.3443 2.068 19.8807 0 20.0787V22.3062C2.068 22.5023 3.33483 24.0387 4.08283 26.4642C4.83083 28.8823 4.9335 31.8468 4.85283 34.1367C4.77033 36.52 6.6275 38.7182 9.13917 38.7182H34.8645C37.3762 38.7182 39.2333 36.52 39.149 34.1367C39.0702 31.8468 39.1728 28.8823 39.919 26.4642C40.6688 24.0387 41.932 22.5042 44 22.3062V20.0787C41.932 19.8807 40.6688 18.3443 39.919 15.9207C39.1728 13.5007 39.0702 10.5362 39.149 8.24632C39.2333 5.86299 37.3743 3.66666 34.8645 3.66666H9.13917ZM29.8283 25.2432C29.8283 28.5248 27.3808 30.514 23.32 30.514H16.4065C16.2086 30.514 16.0188 30.4354 15.8789 30.2954C15.7389 30.1555 15.6603 29.9657 15.6603 29.7678V12.6152C15.6608 12.4176 15.7396 12.2283 15.8795 12.0887C16.0194 11.9492 16.2089 11.8708 16.4065 11.8708H23.2815C26.6677 11.8708 28.8915 13.7042 28.8915 16.522C28.8915 18.4983 27.3955 20.2675 25.4907 20.5792V20.6818C28.0848 20.966 29.8302 22.7627 29.8302 25.2432H29.8283ZM22.5683 14.234H18.6267V19.8037H21.9468C24.5135 19.8037 25.9288 18.7697 25.9288 16.9217C25.9288 15.191 24.7115 14.234 22.5683 14.234ZM18.6267 22.0128V28.149H22.715C25.3862 28.149 26.8033 27.0765 26.8033 25.0617C26.8033 23.045 25.3477 22.0128 22.5427 22.0128H18.6267V22.0128Z" fill="#909099"/>
</g>
<defs>
<clipPath id="clip0_33_20">
<rect width="44" height="44" fill="white"/>
</clipPath>
</defs>
</svg>
