<svg width="44" height="44" viewBox="0 0 44 44" fill="none" xmlns="http://www.w3.org/2000/svg">
<g clip-path="url(#clip0_33_12)">
<path d="M20.559 0.0111071C20.4637 0.0202738 20.163 0.0514404 19.8917 0.0716071C13.6437 0.636274 7.79167 4.00777 4.081 9.19061C2.03189 12.0354 0.69982 15.3329 0.198 18.8028C0.022 20.0128 0 20.3684 0 22.0074C0 23.6464 0.022 24.0039 0.198 25.2121C1.39333 33.4749 7.27467 40.4159 15.2478 42.9881C16.676 43.4483 18.1812 43.7618 19.8917 43.9524C20.559 44.0258 23.441 44.0258 24.1083 43.9524C27.0618 43.6243 29.5662 42.8928 32.0338 41.6333C32.4133 41.4408 32.4867 41.3876 32.4353 41.3454C31.2283 39.7536 30.0335 38.1524 28.8512 36.5421L25.333 31.7883L20.9257 25.2634C19.4592 23.0811 17.9791 20.9079 16.4853 18.7441C16.4688 18.7386 16.4523 21.6371 16.4432 25.1791C16.4303 31.3758 16.4248 31.6251 16.3478 31.7718C16.2727 31.9429 16.1387 32.0815 15.9702 32.1623C15.8327 32.2319 15.7135 32.2448 15.0627 32.2448H14.3183L14.1203 32.1201C13.9978 32.0428 13.8984 31.9338 13.8325 31.8048L13.7408 31.6123L13.75 22.9883L13.7628 14.3606L13.8967 14.1919C13.9868 14.0865 14.0948 13.9977 14.2157 13.9298C14.3917 13.8436 14.4595 13.8363 15.2057 13.8363C16.082 13.8363 16.2287 13.8693 16.456 14.1186C16.5202 14.1883 18.9072 17.7853 21.7635 22.1156L30.4425 35.2643L33.9258 40.5406L34.1037 40.4251C35.7801 39.3106 37.2999 37.977 38.6228 36.4596C41.3951 33.2866 43.1934 29.3814 43.802 25.2121C43.978 24.0021 44 23.6464 44 22.0074C44 20.3684 43.978 20.0128 43.802 18.8028C42.6067 10.5418 36.7253 3.59894 28.7522 1.02677C27.262 0.552984 25.7276 0.231725 24.1725 0.0679404C23.7582 0.0239404 20.9165 -0.0237262 20.5608 0.0129404L20.559 0.0111071ZM29.5662 13.3211C29.6684 13.3726 29.7594 13.4438 29.834 13.5307C29.9086 13.6175 29.9652 13.7183 30.0007 13.8271C30.0337 13.9371 30.0428 16.3296 30.0337 21.7196L30.0208 29.4526L28.6587 27.3626L27.291 25.2726V19.6516C27.291 16.0161 27.3075 13.9738 27.3332 13.8748C27.3637 13.7603 27.4171 13.6531 27.4902 13.5599C27.5633 13.4666 27.6546 13.3891 27.7585 13.3321C27.9363 13.2404 28.0005 13.2331 28.6752 13.2331C29.3113 13.2331 29.4232 13.2423 29.5662 13.3193V13.3211Z" fill="#909099"/>
</g>
<defs>
<clipPath id="clip0_33_12">
<rect width="44" height="44" fill="white"/>
</clipPath>
</defs>
</svg>
