<svg width="38" height="44" viewBox="0 0 38 44" fill="none" xmlns="http://www.w3.org/2000/svg">
<g clip-path="url(#clip0_33_2)">
<path d="M19 43.9184C18.4103 43.9184 17.8599 43.757 17.3488 43.4746L12.1198 40.2871C11.3335 39.8433 11.7267 39.6819 11.9626 39.6012C13.024 39.2381 13.2206 39.1574 14.3214 38.5117C14.4395 38.431 14.5967 38.4714 14.7145 38.5521L18.7248 41.0133C18.8821 41.094 19.0786 41.094 19.1966 41.0133L34.8834 31.6931C35.0407 31.6124 35.1193 31.451 35.1193 31.2493V12.6488C35.1193 12.4471 35.0407 12.2857 34.8834 12.205L19.1966 2.925C19.0393 2.8443 18.8427 2.8443 18.7248 2.925L3.03792 12.2052C2.88067 12.2859 2.80204 12.4876 2.80204 12.649V31.2493C2.80204 31.4107 2.88067 31.6124 3.03792 31.6931L7.3234 34.2349C9.64306 35.4453 11.0975 34.0331 11.0975 32.621V14.2627C11.0975 14.0206 11.2942 13.7785 11.5694 13.7785H13.5746C13.8104 13.7785 14.0463 13.9803 14.0463 14.2627V32.6209C14.0463 35.8084 12.3557 37.6643 9.40703 37.6643C8.50281 37.6643 7.79517 37.6643 5.79017 36.6556L1.66195 34.2349C0.639791 33.6295 0.0107727 32.4998 0.0107727 31.2895V12.6893C0.0107727 11.479 0.639791 10.3493 1.66195 9.74393L17.3488 0.423694C18.3317 -0.14115 19.6683 -0.14115 20.6512 0.423694L36.338 9.74393C37.3602 10.3491 37.9892 11.4788 37.9892 12.6893V31.2896C37.9892 32.5 37.3602 33.6297 36.338 34.2349L20.6512 43.5554C20.1401 43.7975 19.5504 43.9185 19 43.9185V43.9184ZM23.8357 31.1281C16.9555 31.1281 15.5402 27.9004 15.5402 25.1567C15.5402 24.9146 15.7368 24.6726 16.012 24.6726H18.0563C18.2922 24.6726 18.4889 24.834 18.4889 25.076C18.8034 27.2144 19.7076 28.2635 23.875 28.2635C27.1775 28.2635 28.593 27.4969 28.593 25.6814C28.593 24.6322 28.1998 23.8656 23.0494 23.341C18.7641 22.8972 16.0906 21.9289 16.0906 18.4188C16.0906 15.1504 18.764 13.2138 23.246 13.2138C28.2783 13.2138 30.7552 14.9891 31.0697 18.8624C31.0697 18.9835 31.0304 19.1045 30.9518 19.2255C30.8732 19.3062 30.7552 19.3869 30.6373 19.3869H28.593C28.3962 19.3869 28.1998 19.2255 28.1604 19.0238C27.6886 16.8048 26.4699 16.0786 23.246 16.0786C19.6292 16.0786 19.1966 17.3696 19.1966 18.3379C19.1966 19.5081 19.7076 19.8711 24.5827 20.5166C29.4186 21.1622 31.6987 22.0903 31.6987 25.5602C31.6594 29.1108 28.8288 31.1281 23.8357 31.1281V31.1281Z" fill="#909099"/>
</g>
<defs>
<clipPath id="clip0_33_2">
<rect width="38" height="44" fill="white"/>
</clipPath>
</defs>
</svg>
